M48
; DRILL file {KiCad (6.0.10)} date Sat 07 Jan 2023 06:17:06 AM
; FORMAT={-:-/ absolute / metric / decimal}
; #@! TF.CreationDate,2023-01-07T06:17:06-07:00
; #@! TF.GenerationSoftware,Kicad,Pcbnew,(6.0.10)
; #@! TF.FileFunction,Plated,1,2,PTH
FMAT,2
METRIC
; #@! TA.AperFunction,Plated,PTH,ViaDrill
T1C0.305
; #@! TA.AperFunction,Plated,PTH,ViaDrill
T2C0.381
; #@! TA.AperFunction,Plated,PTH,ViaDrill
T3C0.635
; #@! TA.AperFunction,Plated,PTH,ComponentDrill
T4C0.750
; #@! TA.AperFunction,Plated,PTH,ComponentDrill
T5C0.800
; #@! TA.AperFunction,Plated,PTH,ComponentDrill
T6C0.900
; #@! TA.AperFunction,Plated,PTH,ComponentDrill
T7C0.991
; #@! TA.AperFunction,Plated,PTH,ComponentDrill
T8C1.000
; #@! TA.AperFunction,Plated,PTH,ComponentDrill
T9C1.016
; #@! TA.AperFunction,Plated,PTH,ComponentDrill
T10C1.295
; #@! TA.AperFunction,Plated,PTH,ComponentDrill
T11C3.200
%
G90
G05
T1
X56.515Y-65.786
X105.156Y-45.212
X106.426Y-45.974
X108.966Y-46.736
X110.744Y-47.498
X113.03Y-56.896
X120.65Y-68.326
X123.19Y-35.306
X140.462Y-36.576
X140.462Y-44.958
X168.91Y-46.99
T2
X49.53Y-49.784
X50.546Y-50.546
X51.308Y-89.154
X51.308Y-105.156
X52.324Y-139.192
X52.578Y-81.026
X54.356Y-125.73
X59.182Y-67.564
X60.198Y-49.022
X60.198Y-137.922
X62.738Y-31.496
X62.738Y-136.906
X64.008Y-144.018
X64.262Y-81.28
X65.278Y-135.89
X67.818Y-134.874
X69.088Y-134.874
X69.342Y-43.18
X69.342Y-67.564
X70.358Y-133.858
X72.898Y-132.842
X74.168Y-31.75
X74.676Y-90.932
X75.438Y-116.586
X75.438Y-131.826
X76.073Y-29.464
X76.708Y-131.826
X77.47Y-53.086
X77.978Y-115.57
X77.978Y-130.81
X80.518Y-114.554
X83.058Y-117.602
X85.598Y-118.618
X87.63Y-62.992
X88.138Y-89.662
X88.138Y-90.932
X88.138Y-119.634
X90.17Y-62.738
X90.17Y-88.646
X90.678Y-120.65
X92.202Y-87.63
X93.218Y-121.666
X95.25Y-40.386
X95.25Y-60.96
X95.758Y-122.682
X96.266Y-90.678
X97.79Y-60.96
X98.806Y-91.694
X98.806Y-116.586
X99.314Y-89.662
X100.33Y-39.37
X101.346Y-88.646
X101.346Y-92.71
X101.346Y-115.57
X101.6Y-61.976
X103.378Y-87.63
X103.886Y-93.726
X103.886Y-114.554
X106.426Y-94.742
X107.95Y-123.952
X107.95Y-143.256
X108.458Y-97.536
X108.712Y-82.296
X109.474Y-88.646
X109.474Y-102.87
X109.474Y-110.998
X109.474Y-144.018
X110.49Y-81.534
X110.49Y-103.886
X110.49Y-112.014
X110.49Y-143.002
X111.506Y-89.662
X111.506Y-104.902
X111.506Y-141.986
X112.522Y-80.518
X112.522Y-105.918
X112.522Y-140.97
X113.538Y-96.012
X113.538Y-106.934
X113.538Y-139.954
X114.554Y-79.248
X114.554Y-107.95
X114.554Y-138.938
X115.57Y-96.52
X115.57Y-108.966
X115.57Y-127.762
X115.57Y-137.922
X116.586Y-78.232
X116.586Y-109.982
X116.586Y-128.778
X116.586Y-136.906
X117.602Y-82.55
X117.602Y-101.854
X117.602Y-105.41
X117.602Y-135.89
X118.618Y-87.63
X118.618Y-100.838
X118.618Y-102.87
X118.618Y-134.874
X119.634Y-83.566
X119.634Y-99.822
X119.634Y-133.858
X120.65Y-132.842
X123.19Y-86.614
X124.968Y-141.986
X125.73Y-55.118
X125.73Y-72.39
X125.73Y-90.678
X125.73Y-122.682
X125.73Y-127.762
X126.746Y-54.102
X126.746Y-73.406
X126.746Y-91.694
X126.746Y-121.666
X126.746Y-126.746
X127.508Y-140.97
X127.762Y-53.086
X127.762Y-74.422
X127.762Y-92.71
X127.762Y-120.65
X127.762Y-125.73
X128.778Y-52.07
X128.778Y-75.438
X128.778Y-93.726
X128.778Y-119.634
X128.778Y-124.714
X129.794Y-51.054
X129.794Y-76.454
X129.794Y-94.742
X129.794Y-118.618
X129.794Y-123.698
X130.81Y-99.314
X130.81Y-113.03
X130.81Y-115.57
X130.81Y-122.682
X131.318Y-30.48
X131.826Y-116.586
X131.826Y-121.666
X132.842Y-117.602
X132.842Y-120.65
X136.652Y-91.694
X138.176Y-84.836
X138.176Y-117.602
X139.192Y-30.48
X139.192Y-40.64
X139.533Y-86.066
X141.351Y-136.906
X151.384Y-102.616
X151.384Y-119.634
X153.173Y-127.773
X153.416Y-106.934
X155.326Y-45.715
X155.956Y-103.632
X155.956Y-119.634
X156.758Y-126.786
X157.866Y-44.699
X158.496Y-118.618
X159.131Y-69.342
X160.274Y-125.73
X161.671Y-70.358
X163.83Y-124.714
X164.211Y-71.374
X164.846Y-84.836
X167.386Y-123.698
X170.942Y-122.682
X171.196Y-57.404
X174.498Y-121.666
X175.002Y-62.48
X178.562Y-120.65
X178.819Y-65.783
X180.848Y-119.634
X180.848Y-128.778
X182.118Y-118.618
X182.626Y-68.072
X188.214Y-29.464
X190.881Y-84.836
X192.024Y-30.48
X193.421Y-86.106
X197.233Y-73.531
X201.041Y-74.93
X204.851Y-77.597
X210.312Y-106.934
X211.074Y-72.898
X212.09Y-72.136
X213.106Y-74.676
X213.614Y-73.152
X214.122Y-76.2
X214.884Y-102.616
X215.138Y-70.612
X215.138Y-77.47
X215.646Y-74.168
X215.9Y-103.632
X216.158Y-41.914
X218.186Y-75.184
X218.44Y-72.136
X219.964Y-36.322
T3
X41.275Y-72.517
X41.275Y-92.71
X41.275Y-97.663
X41.275Y-147.193
X41.319Y-113.113
X41.337Y-64.324
X51.943Y-71.247
X77.47Y-45.974
X77.47Y-66.548
X123.19Y-66.294
X123.19Y-97.79
X123.19Y-114.3
X128.27Y-148.336
X141.351Y-83.566
X145.796Y-108.966
X167.415Y-86.077
X222.25Y-54.61
X226.568Y-41.91
T4
X187.706Y-134.091
X188.976Y-134.091
X190.246Y-134.091
T5
X41.656Y-41.91
X41.656Y-46.863
X49.296Y-66.802
X51.796Y-66.802
X51.816Y-41.91
X51.816Y-46.863
X51.836Y-37.084
X52.041Y-32.766
X52.598Y-52.324
X54.041Y-32.766
X54.336Y-37.084
X55.098Y-52.324
X55.245Y-55.93
X55.245Y-63.45
X55.245Y-71.17
X55.245Y-78.69
X57.509Y-104.952
X57.509Y-112.472
X57.658Y-38.454
X57.658Y-45.974
X57.658Y-125.262
X57.658Y-140.462
X57.785Y-55.93
X57.785Y-63.45
X57.785Y-71.17
X57.785Y-78.69
X60.049Y-104.952
X60.049Y-112.472
X60.198Y-38.454
X60.198Y-45.974
X60.198Y-125.262
X60.198Y-140.462
X60.325Y-55.93
X60.325Y-63.45
X60.325Y-71.17
X60.325Y-78.69
X62.589Y-104.952
X62.589Y-112.472
X62.738Y-38.454
X62.738Y-45.974
X62.738Y-125.262
X62.738Y-140.462
X62.865Y-55.93
X62.865Y-63.45
X62.865Y-71.17
X62.865Y-78.69
X65.129Y-104.952
X65.129Y-112.472
X65.278Y-38.454
X65.278Y-45.974
X65.278Y-125.262
X65.278Y-140.462
X65.405Y-55.93
X65.405Y-63.45
X65.405Y-71.17
X65.405Y-78.69
X67.669Y-104.952
X67.669Y-112.472
X67.818Y-38.454
X67.818Y-45.974
X67.818Y-125.262
X67.818Y-140.462
X67.945Y-55.93
X67.945Y-63.45
X67.945Y-71.17
X67.945Y-78.69
X70.209Y-104.952
X70.209Y-112.472
X70.358Y-38.454
X70.358Y-45.974
X70.358Y-125.262
X70.358Y-140.462
X70.485Y-55.93
X70.485Y-63.45
X70.485Y-71.17
X70.485Y-78.69
X72.749Y-104.952
X72.749Y-112.472
X72.898Y-38.454
X72.898Y-45.974
X72.898Y-125.262
X72.898Y-140.462
X73.025Y-55.93
X73.025Y-63.45
X73.025Y-71.17
X73.025Y-78.69
X75.438Y-125.262
X75.438Y-140.462
X77.47Y-37.338
X77.47Y-77.47
X77.49Y-60.706
X77.51Y-92.71
X77.978Y-125.262
X77.978Y-140.462
X78.486Y-97.287
X78.486Y-112.527
X79.97Y-37.338
X79.97Y-77.47
X79.99Y-60.706
X80.01Y-92.71
X80.518Y-125.262
X80.518Y-140.462
X81.026Y-97.287
X81.026Y-112.527
X83.058Y-125.262
X83.058Y-140.462
X83.566Y-97.287
X83.566Y-112.527
X83.805Y-37.338
X83.805Y-52.578
X83.82Y-58.978
X83.82Y-66.498
X83.82Y-77.316
X83.82Y-84.836
X85.598Y-125.262
X85.598Y-140.462
X86.106Y-33.02
X86.106Y-97.287
X86.106Y-112.527
X86.345Y-37.338
X86.345Y-52.578
X86.36Y-58.978
X86.36Y-66.498
X86.36Y-77.316
X86.36Y-84.836
X88.138Y-125.262
X88.138Y-140.462
X88.646Y-97.287
X88.646Y-112.527
X88.885Y-37.338
X88.885Y-52.578
X88.895Y-37.338
X88.895Y-52.578
X88.9Y-58.978
X88.9Y-66.498
X88.9Y-77.316
X88.9Y-84.836
X90.678Y-125.262
X90.678Y-140.462
X91.186Y-97.287
X91.186Y-112.527
X91.425Y-37.338
X91.425Y-52.578
X91.435Y-37.338
X91.435Y-52.578
X91.44Y-58.978
X91.44Y-66.498
X91.44Y-77.316
X91.44Y-84.836
X93.218Y-125.262
X93.218Y-140.462
X93.726Y-97.287
X93.726Y-112.527
X93.965Y-37.338
X93.965Y-52.578
X93.975Y-37.338
X93.975Y-52.578
X93.98Y-58.978
X93.98Y-66.498
X93.98Y-77.316
X93.98Y-84.836
X95.758Y-125.262
X95.758Y-140.462
X96.266Y-33.02
X96.266Y-97.287
X96.266Y-112.527
X96.505Y-37.338
X96.505Y-52.578
X96.515Y-37.338
X96.515Y-52.578
X96.52Y-58.978
X96.52Y-66.498
X96.52Y-77.316
X96.52Y-84.836
X98.298Y-125.262
X98.298Y-140.462
X98.806Y-97.287
X98.806Y-112.527
X99.045Y-37.338
X99.045Y-52.578
X99.055Y-37.338
X99.055Y-52.578
X99.06Y-58.978
X99.06Y-66.498
X99.06Y-77.316
X99.06Y-84.836
X100.838Y-125.262
X100.838Y-140.462
X101.346Y-97.287
X101.346Y-112.527
X101.585Y-37.338
X101.585Y-52.578
X101.595Y-37.338
X101.595Y-52.578
X101.6Y-58.978
X101.6Y-66.498
X101.6Y-77.316
X101.6Y-84.836
X103.378Y-125.262
X103.378Y-140.462
X103.886Y-97.287
X103.886Y-112.527
X104.125Y-37.338
X104.125Y-52.578
X104.135Y-37.338
X104.135Y-52.578
X104.14Y-58.978
X104.14Y-66.498
X104.14Y-77.316
X104.14Y-84.836
X105.918Y-125.262
X105.918Y-140.462
X106.426Y-97.287
X106.426Y-112.527
X106.665Y-37.338
X106.665Y-52.578
X106.675Y-37.338
X106.675Y-52.578
X106.68Y-58.978
X106.68Y-66.498
X106.68Y-77.316
X106.68Y-84.836
X109.205Y-37.338
X109.205Y-52.578
X109.215Y-37.338
X109.215Y-52.578
X110.49Y-148.356
X110.49Y-150.856
X111.745Y-37.338
X111.745Y-52.578
X111.755Y-37.338
X111.755Y-52.578
X114.285Y-37.338
X114.285Y-52.578
X114.295Y-37.338
X114.295Y-52.578
X116.825Y-37.338
X116.825Y-52.578
X116.835Y-37.338
X116.835Y-52.578
X131.866Y-49.022
X134.366Y-49.022
X134.366Y-83.566
X134.366Y-86.066
X134.67Y-100.33
X134.67Y-102.87
X134.67Y-105.41
X134.67Y-107.95
X134.67Y-110.49
X134.67Y-113.03
X134.67Y-115.57
X138.811Y-49.022
X138.811Y-64.262
X138.811Y-81.076
X138.811Y-88.596
X141.351Y-49.022
X141.351Y-64.262
X141.351Y-81.076
X141.351Y-88.596
X142.19Y-100.33
X142.19Y-102.87
X142.19Y-105.41
X142.19Y-107.95
X142.19Y-110.49
X142.19Y-113.03
X142.19Y-115.57
X143.891Y-49.022
X143.891Y-64.262
X143.891Y-81.076
X143.891Y-88.596
X145.796Y-97.81
X145.796Y-100.31
X146.431Y-49.022
X146.431Y-64.262
X146.431Y-81.076
X146.431Y-88.596
X148.971Y-49.022
X148.971Y-64.262
X148.971Y-81.076
X148.971Y-88.596
X150.114Y-97.85
X150.114Y-100.35
X151.511Y-49.022
X151.511Y-64.262
X151.511Y-81.076
X151.511Y-88.596
X153.416Y-100.35
X153.416Y-115.55
X154.051Y-49.022
X154.051Y-64.262
X154.051Y-81.076
X154.051Y-88.596
X155.956Y-100.35
X155.956Y-115.55
X156.591Y-49.022
X156.591Y-64.262
X156.591Y-81.076
X156.591Y-88.596
X158.496Y-100.35
X158.496Y-115.55
X159.131Y-49.022
X159.131Y-64.262
X160.401Y-83.566
X160.401Y-86.066
X161.036Y-100.35
X161.036Y-115.55
X161.671Y-49.022
X161.671Y-64.262
X163.576Y-100.35
X163.576Y-115.55
X164.211Y-49.022
X164.211Y-64.262
X164.846Y-81.076
X164.846Y-88.596
X166.116Y-100.35
X166.116Y-115.55
X166.751Y-49.022
X166.751Y-64.262
X167.386Y-81.076
X167.386Y-88.596
X168.656Y-100.35
X168.656Y-115.55
X169.926Y-81.076
X169.926Y-88.596
X171.196Y-100.35
X171.196Y-115.55
X172.466Y-81.076
X172.466Y-88.596
X173.736Y-100.35
X173.736Y-115.55
X175.006Y-81.076
X175.006Y-88.596
X176.276Y-100.35
X176.276Y-115.55
X177.546Y-81.076
X177.546Y-88.596
X178.816Y-100.35
X178.816Y-115.55
X179.324Y-41.93
X179.324Y-44.43
X180.086Y-81.076
X180.086Y-88.596
X181.356Y-100.35
X181.356Y-115.55
X182.626Y-81.076
X182.626Y-88.596
X183.488Y-39.42
X183.488Y-46.94
X183.896Y-100.35
X183.896Y-115.55
X186.028Y-39.42
X186.028Y-46.94
X186.436Y-100.35
X186.436Y-115.55
X186.69Y-83.606
X186.69Y-86.106
X187.706Y-138.811
X187.706Y-141.986
X187.706Y-145.161
X188.569Y-39.42
X188.569Y-46.94
X188.976Y-100.35
X188.976Y-115.55
X189.23Y-54.63
X189.23Y-57.13
X190.881Y-81.026
X190.881Y-88.546
X191.108Y-39.42
X191.108Y-46.94
X191.516Y-100.35
X191.516Y-115.55
X193.421Y-81.026
X193.421Y-88.546
X193.648Y-39.42
X193.648Y-46.94
X193.802Y-52.12
X193.802Y-59.64
X194.056Y-100.35
X194.056Y-115.55
X195.961Y-81.026
X195.961Y-88.546
X196.189Y-39.42
X196.189Y-46.94
X196.596Y-100.35
X196.596Y-115.55
X197.866Y-138.811
X197.866Y-141.986
X197.866Y-145.161
X198.501Y-81.026
X198.501Y-88.546
X198.728Y-39.42
X198.728Y-46.94
X199.136Y-100.35
X199.136Y-115.55
X201.041Y-81.026
X201.041Y-88.546
X201.268Y-39.42
X201.268Y-46.94
X201.422Y-52.12
X201.422Y-59.64
X201.676Y-100.35
X201.676Y-115.55
X203.581Y-81.026
X203.581Y-88.546
X204.724Y-41.914
X204.724Y-44.414
X204.978Y-128.903
X204.978Y-132.403
X206.121Y-81.026
X206.121Y-88.546
X208.512Y-39.297
X208.512Y-46.817
X208.661Y-81.026
X208.661Y-88.546
X209.042Y-52.12
X209.042Y-59.64
X211.052Y-39.297
X211.052Y-46.817
X213.593Y-39.297
X213.593Y-46.817
X216.132Y-39.297
X216.132Y-46.817
X218.672Y-39.297
X218.672Y-46.817
X221.212Y-39.297
X221.212Y-46.817
X223.752Y-39.297
X223.752Y-46.817
T6
X195.331Y-133.096
X197.871Y-133.096
T8
X45.23Y-80.945
X45.23Y-83.715
X45.23Y-86.485
X45.23Y-89.255
X45.42Y-121.695
X45.42Y-124.465
X45.42Y-127.235
X45.42Y-130.005
X45.42Y-132.775
X45.42Y-135.545
X45.42Y-138.315
X48.07Y-79.56
X48.07Y-82.33
X48.07Y-85.1
X48.07Y-87.87
X48.07Y-90.64
X48.26Y-120.31
X48.26Y-123.08
X48.26Y-125.85
X48.26Y-128.62
X48.26Y-131.39
X48.26Y-134.16
X48.26Y-136.93
X48.26Y-139.7
X56.129Y-147.828
X58.669Y-147.828
X64.008Y-147.828
X66.548Y-147.828
X66.66Y-83.693
X69.2Y-83.693
X71.74Y-83.693
X72.771Y-147.828
X75.311Y-147.828
X77.851Y-147.828
X80.391Y-147.828
X82.931Y-147.828
X85.471Y-147.828
X88.011Y-147.828
X90.551Y-147.828
X93.091Y-147.828
X95.631Y-147.828
X98.171Y-147.828
X99.568Y-33.02
X100.711Y-147.828
X102.108Y-33.02
X103.251Y-147.828
X105.791Y-147.828
X134.62Y-145.293
X134.62Y-147.833
X137.16Y-145.293
X137.16Y-147.833
X139.7Y-145.293
X139.7Y-147.833
X142.24Y-145.293
X142.24Y-147.833
X144.78Y-145.293
X144.78Y-147.833
X147.32Y-145.293
X147.32Y-147.833
X149.86Y-145.293
X149.86Y-147.833
X152.4Y-145.293
X152.4Y-147.833
X154.94Y-145.293
X154.94Y-147.833
X157.48Y-145.293
X157.48Y-147.833
X160.02Y-145.293
X160.02Y-147.833
X162.56Y-145.293
X162.56Y-147.833
X165.1Y-145.293
X165.1Y-147.833
X166.37Y-134.874
X166.37Y-137.414
X167.64Y-145.293
X167.64Y-147.833
X168.91Y-134.874
X168.91Y-137.414
X170.18Y-145.293
X170.18Y-147.833
X171.45Y-134.874
X171.45Y-137.414
X172.72Y-145.293
X172.72Y-147.833
X173.99Y-134.874
X173.99Y-137.414
X175.26Y-145.293
X175.26Y-147.833
X176.53Y-134.874
X176.53Y-137.414
X177.8Y-145.293
X177.8Y-147.833
X179.07Y-134.874
X179.07Y-137.414
X180.34Y-145.293
X180.34Y-147.833
X182.88Y-145.293
X182.88Y-147.833
T9
X212.09Y-116.332
X212.09Y-118.872
X212.09Y-121.412
X212.09Y-123.952
X212.09Y-126.492
X212.09Y-126.492
X212.09Y-129.032
X212.09Y-131.572
X214.63Y-113.792
X214.63Y-116.332
X214.63Y-118.872
X214.63Y-121.412
X214.63Y-123.952
X214.63Y-126.492
X214.63Y-129.032
X214.63Y-131.572
X217.17Y-111.252
X217.17Y-113.792
X217.17Y-116.332
X217.17Y-118.872
X217.17Y-121.412
X217.17Y-123.952
X217.17Y-126.492
X217.17Y-129.032
X217.17Y-131.572
X219.71Y-108.712
X219.71Y-111.252
X219.71Y-113.792
X219.71Y-116.332
X219.71Y-118.872
X219.71Y-121.412
X219.71Y-123.952
X219.71Y-126.492
X219.71Y-129.032
X219.71Y-131.572
X222.25Y-60.452
X222.25Y-62.992
X222.25Y-65.532
X222.25Y-68.072
X222.25Y-70.612
X222.25Y-73.152
X222.25Y-75.692
X222.25Y-78.232
X222.25Y-80.772
X222.25Y-83.312
X222.25Y-88.392
X222.25Y-90.932
X222.25Y-93.472
X222.25Y-96.012
X222.25Y-98.552
X222.25Y-106.172
X222.25Y-108.712
X222.25Y-111.252
X222.25Y-113.792
X222.25Y-116.332
X222.25Y-118.872
X222.25Y-121.412
X222.25Y-123.952
X222.25Y-126.492
X222.25Y-129.032
X222.25Y-131.572
X224.79Y-60.452
X224.79Y-62.992
X224.79Y-65.532
X224.79Y-68.072
X224.79Y-70.612
X224.79Y-73.152
X224.79Y-75.692
X224.79Y-78.232
X224.79Y-80.772
X224.79Y-83.312
X224.79Y-85.852
X224.79Y-88.392
X224.79Y-90.932
X224.79Y-93.472
X224.79Y-96.012
X224.79Y-98.552
X224.79Y-103.632
X224.79Y-106.172
X224.79Y-108.712
X224.79Y-111.252
X224.79Y-113.792
X224.79Y-113.792
X224.79Y-116.332
X224.79Y-118.872
X224.79Y-121.412
X224.79Y-123.952
X224.79Y-126.492
X224.79Y-126.492
X224.79Y-129.032
X224.79Y-131.572
X227.33Y-50.292
X227.33Y-52.832
X227.33Y-55.372
X227.33Y-57.912
X227.33Y-60.452
X227.33Y-62.992
X227.33Y-65.532
X227.33Y-68.072
X227.33Y-70.612
X227.33Y-73.152
X227.33Y-75.692
X227.33Y-78.232
X227.33Y-80.772
X227.33Y-83.312
X227.33Y-85.852
X227.33Y-88.392
X227.33Y-90.932
X227.33Y-93.472
X227.33Y-96.012
X227.33Y-98.552
X227.33Y-101.092
X227.33Y-103.632
X227.33Y-106.172
X227.33Y-108.712
X227.33Y-111.252
X227.33Y-113.792
X227.33Y-116.332
X227.33Y-118.872
X227.33Y-121.412
X227.33Y-123.952
X227.33Y-126.492
X227.33Y-129.032
X227.33Y-131.572
X229.87Y-29.972
X229.87Y-32.512
X229.87Y-35.052
X229.87Y-37.592
X229.87Y-40.132
X229.87Y-42.672
X229.87Y-45.212
X229.87Y-47.752
X229.87Y-50.292
X229.87Y-52.832
X229.87Y-55.372
X229.87Y-57.912
X229.87Y-60.452
X229.87Y-62.992
X229.87Y-65.532
X229.87Y-68.072
X229.87Y-70.612
X229.87Y-73.152
X229.87Y-75.692
X229.87Y-78.232
X229.87Y-80.772
X229.87Y-83.312
X229.87Y-85.852
X229.87Y-88.392
X229.87Y-90.932
X229.87Y-93.472
X229.87Y-96.012
X229.87Y-98.552
X229.87Y-101.092
X229.87Y-103.632
X229.87Y-106.172
X229.87Y-108.712
X229.87Y-111.252
X229.87Y-113.792
X229.87Y-116.332
X229.87Y-118.872
X229.87Y-121.412
X229.87Y-123.952
X229.87Y-126.492
X229.87Y-129.032
X229.87Y-131.572
X232.41Y-29.972
X232.41Y-32.512
X232.41Y-35.052
X232.41Y-37.592
X232.41Y-40.132
X232.41Y-42.672
X232.41Y-45.212
X232.41Y-47.752
X232.41Y-50.292
X232.41Y-52.832
X232.41Y-55.372
X232.41Y-57.912
X232.41Y-60.452
X232.41Y-62.992
X232.41Y-65.532
X232.41Y-68.072
X232.41Y-70.612
X232.41Y-73.152
X232.41Y-75.692
X232.41Y-78.232
X232.41Y-80.772
X232.41Y-83.312
X232.41Y-85.852
X232.41Y-88.392
X232.41Y-90.932
X232.41Y-93.472
X232.41Y-96.012
X232.41Y-98.552
X232.41Y-101.092
X232.41Y-103.632
X232.41Y-106.172
X232.41Y-108.712
X232.41Y-111.252
X232.41Y-113.792
X232.41Y-116.332
X232.41Y-118.872
X232.41Y-121.412
X232.41Y-123.952
X232.41Y-126.492
X232.41Y-129.032
X232.41Y-131.572
X234.95Y-29.972
X234.95Y-32.512
X234.95Y-35.052
X234.95Y-37.592
X234.95Y-40.132
X234.95Y-42.672
X234.95Y-45.212
X234.95Y-47.752
X234.95Y-50.292
X234.95Y-52.832
X234.95Y-55.372
X234.95Y-57.912
X234.95Y-60.452
X234.95Y-62.992
X234.95Y-65.532
X234.95Y-68.072
X234.95Y-70.612
X234.95Y-73.152
X234.95Y-75.692
X234.95Y-78.232
X234.95Y-80.772
X234.95Y-83.312
X234.95Y-85.852
X234.95Y-88.392
X234.95Y-90.932
X234.95Y-93.472
X234.95Y-96.012
X234.95Y-98.552
X234.95Y-101.092
X234.95Y-103.632
X234.95Y-106.172
X234.95Y-108.712
X234.95Y-111.252
X234.95Y-113.792
X234.95Y-116.332
X234.95Y-118.872
X234.95Y-121.412
X234.95Y-123.952
X234.95Y-126.492
X234.95Y-129.032
X234.95Y-131.572
X237.49Y-29.972
X237.49Y-32.512
X237.49Y-35.052
X237.49Y-37.592
X237.49Y-37.592
X237.49Y-40.132
X237.49Y-42.672
X237.49Y-45.212
X237.49Y-47.752
X237.49Y-50.292
X237.49Y-50.292
X237.49Y-52.832
X237.49Y-55.372
X237.49Y-57.912
X237.49Y-60.452
X237.49Y-62.992
X237.49Y-62.992
X237.49Y-65.532
X237.49Y-68.072
X237.49Y-70.612
X237.49Y-73.152
X237.49Y-75.692
X237.49Y-75.692
X237.49Y-78.232
X237.49Y-80.772
X237.49Y-83.312
X237.49Y-85.852
X237.49Y-88.392
X237.49Y-88.392
X237.49Y-90.932
X237.49Y-93.472
X237.49Y-96.012
X237.49Y-98.552
X237.49Y-101.092
X237.49Y-101.092
X237.49Y-103.632
X237.49Y-106.172
X237.49Y-108.712
X237.49Y-111.252
X237.49Y-113.792
X237.49Y-113.792
X237.49Y-116.332
X237.49Y-118.872
X237.49Y-121.412
X237.49Y-123.952
X237.49Y-126.492
X237.49Y-126.492
X237.49Y-129.032
X237.49Y-131.572
X240.03Y-29.972
X240.03Y-32.512
X240.03Y-35.052
X240.03Y-37.592
X240.03Y-40.132
X240.03Y-42.672
X240.03Y-45.212
X240.03Y-47.752
X240.03Y-50.292
X240.03Y-52.832
X240.03Y-55.372
X240.03Y-57.912
X240.03Y-60.452
X240.03Y-62.992
X240.03Y-65.532
X240.03Y-68.072
X240.03Y-70.612
X240.03Y-73.152
X240.03Y-75.692
X240.03Y-78.232
X240.03Y-80.772
X240.03Y-83.312
X240.03Y-85.852
X240.03Y-88.392
X240.03Y-90.932
X240.03Y-93.472
X240.03Y-96.012
X240.03Y-98.552
X240.03Y-101.092
X240.03Y-103.632
X240.03Y-106.172
X240.03Y-108.712
X240.03Y-111.252
X240.03Y-113.792
X240.03Y-116.332
X240.03Y-118.872
X240.03Y-121.412
X240.03Y-123.952
X240.03Y-126.492
X240.03Y-129.032
X240.03Y-131.572
X242.57Y-29.972
X242.57Y-32.512
X242.57Y-35.052
X242.57Y-37.592
X242.57Y-40.132
X242.57Y-42.672
X242.57Y-45.212
X242.57Y-47.752
X242.57Y-50.292
X242.57Y-52.832
X242.57Y-55.372
X242.57Y-57.912
X242.57Y-60.452
X242.57Y-62.992
X242.57Y-65.532
X242.57Y-68.072
X242.57Y-70.612
X242.57Y-73.152
X242.57Y-75.692
X242.57Y-78.232
X242.57Y-80.772
X242.57Y-83.312
X242.57Y-85.852
X242.57Y-88.392
X242.57Y-90.932
X242.57Y-93.472
X242.57Y-96.012
X242.57Y-98.552
X242.57Y-101.092
X242.57Y-103.632
X242.57Y-106.172
X242.57Y-108.712
X242.57Y-111.252
X242.57Y-113.792
X242.57Y-116.332
X242.57Y-118.872
X242.57Y-121.412
X242.57Y-123.952
X242.57Y-126.492
X242.57Y-129.032
X242.57Y-131.572
X245.11Y-29.972
X245.11Y-32.512
X245.11Y-35.052
X245.11Y-37.592
X245.11Y-40.132
X245.11Y-42.672
X245.11Y-45.212
X245.11Y-47.752
X245.11Y-50.292
X245.11Y-52.832
X245.11Y-55.372
X245.11Y-57.912
X245.11Y-60.452
X245.11Y-62.992
X245.11Y-65.532
X245.11Y-68.072
X245.11Y-70.612
X245.11Y-73.152
X245.11Y-75.692
X245.11Y-78.232
X245.11Y-80.772
X245.11Y-83.312
X245.11Y-85.852
X245.11Y-88.392
X245.11Y-90.932
X245.11Y-93.472
X245.11Y-96.012
X245.11Y-98.552
X245.11Y-101.092
X245.11Y-103.632
X245.11Y-106.172
X245.11Y-108.712
X245.11Y-111.252
X245.11Y-113.792
X245.11Y-116.332
X245.11Y-118.872
X245.11Y-121.412
X245.11Y-123.952
X245.11Y-126.492
X245.11Y-129.032
X245.11Y-131.572
X247.65Y-29.972
X247.65Y-32.512
X247.65Y-35.052
X247.65Y-37.592
X247.65Y-40.132
X247.65Y-42.672
X247.65Y-45.212
X247.65Y-47.752
X247.65Y-50.292
X247.65Y-52.832
X247.65Y-55.372
X247.65Y-57.912
X247.65Y-60.452
X247.65Y-62.992
X247.65Y-65.532
X247.65Y-68.072
X247.65Y-70.612
X247.65Y-73.152
X247.65Y-75.692
X247.65Y-78.232
X247.65Y-80.772
X247.65Y-83.312
X247.65Y-85.852
X247.65Y-88.392
X247.65Y-90.932
X247.65Y-93.472
X247.65Y-96.012
X247.65Y-98.552
X247.65Y-101.092
X247.65Y-103.632
X247.65Y-106.172
X247.65Y-108.712
X247.65Y-111.252
X247.65Y-113.792
X247.65Y-116.332
X247.65Y-118.872
X247.65Y-121.412
X247.65Y-123.952
X247.65Y-126.492
X247.65Y-129.032
X247.65Y-131.572
X250.19Y-29.972
X250.19Y-32.512
X250.19Y-35.052
X250.19Y-37.592
X250.19Y-37.592
X250.19Y-40.132
X250.19Y-42.672
X250.19Y-45.212
X250.19Y-47.752
X250.19Y-50.292
X250.19Y-50.292
X250.19Y-52.832
X250.19Y-55.372
X250.19Y-57.912
X250.19Y-60.452
X250.19Y-62.992
X250.19Y-62.992
X250.19Y-65.532
X250.19Y-68.072
X250.19Y-70.612
X250.19Y-73.152
X250.19Y-75.692
X250.19Y-75.692
X250.19Y-78.232
X250.19Y-80.772
X250.19Y-83.312
X250.19Y-85.852
X250.19Y-88.392
X250.19Y-88.392
X250.19Y-90.932
X250.19Y-93.472
X250.19Y-96.012
X250.19Y-98.552
X250.19Y-101.092
X250.19Y-101.092
X250.19Y-103.632
X250.19Y-106.172
X250.19Y-108.712
X250.19Y-111.252
X250.19Y-113.792
X250.19Y-113.792
X250.19Y-116.332
X250.19Y-118.872
X250.19Y-121.412
X250.19Y-123.952
X250.19Y-126.492
X250.19Y-126.492
X250.19Y-129.032
X250.19Y-131.572
T11
X46.65Y-72.6
X46.65Y-97.6
X46.84Y-113.355
X46.84Y-146.655
T7
X46.299Y-52.455G85X44.801Y-52.455
G05
X46.299Y-59.955G85X44.801Y-59.955
G05
T10
X41.85Y-55.608G85X41.85Y-56.802
G05
T0
M30
