%TF.GenerationSoftware,KiCad,Pcbnew,(7.99.0-363-gaf7eb36925)*%
%TF.CreationDate,2023-03-17T22:26:42-06:00*%
%TF.ProjectId,FennecVTI,46656e6e-6563-4565-9449-2e6b69636164,rev?*%
%TF.SameCoordinates,Original*%
%TF.FileFunction,Drillmap*%
%TF.FilePolarity,Positive*%
%FSLAX45Y45*%
G04 Gerber Fmt 4.5, Leading zero omitted, Abs format (unit mm)*
G04 Created by KiCad (PCBNEW (7.99.0-363-gaf7eb36925)) date 2023-03-17 22:26:42*
%MOMM*%
%LPD*%
G01*
G04 APERTURE LIST*
%ADD10C,0.100000*%
%ADD11C,0.200000*%
G04 APERTURE END LIST*
D10*
X25492188Y-3197521D02*
X25488900Y-15110386D01*
X4330549Y-15747926D02*
X24853900Y-15747926D01*
X4331296Y-2562521D02*
G75*
G03*
X3696296Y-3200061I-23191J-611906D01*
G01*
X4331296Y-2562521D02*
X24854648Y-2562521D01*
X3693009Y-15112926D02*
G75*
G03*
X4330549Y-15747926I611904J-23193D01*
G01*
X3696296Y-3200061D02*
X3693009Y-15112926D01*
X25492186Y-3197521D02*
G75*
G03*
X24854648Y-2562521I-611916J23181D01*
G01*
X24853900Y-15747925D02*
G75*
G03*
X25488900Y-15110386I23187J611910D01*
G01*
D11*
X3935188Y-16065986D02*
X3935188Y-15865986D01*
X3935188Y-15865986D02*
X3982807Y-15865986D01*
X3982807Y-15865986D02*
X4011379Y-15875510D01*
X4011379Y-15875510D02*
X4030426Y-15894558D01*
X4030426Y-15894558D02*
X4039950Y-15913605D01*
X4039950Y-15913605D02*
X4049474Y-15951701D01*
X4049474Y-15951701D02*
X4049474Y-15980272D01*
X4049474Y-15980272D02*
X4039950Y-16018367D01*
X4039950Y-16018367D02*
X4030426Y-16037415D01*
X4030426Y-16037415D02*
X4011379Y-16056463D01*
X4011379Y-16056463D02*
X3982807Y-16065986D01*
X3982807Y-16065986D02*
X3935188Y-16065986D01*
X4135188Y-16065986D02*
X4135188Y-15932653D01*
X4135188Y-15970748D02*
X4144712Y-15951701D01*
X4144712Y-15951701D02*
X4154236Y-15942177D01*
X4154236Y-15942177D02*
X4173284Y-15932653D01*
X4173284Y-15932653D02*
X4192331Y-15932653D01*
X4258998Y-16065986D02*
X4258998Y-15932653D01*
X4258998Y-15865986D02*
X4249474Y-15875510D01*
X4249474Y-15875510D02*
X4258998Y-15885034D01*
X4258998Y-15885034D02*
X4268522Y-15875510D01*
X4268522Y-15875510D02*
X4258998Y-15865986D01*
X4258998Y-15865986D02*
X4258998Y-15885034D01*
X4382807Y-16065986D02*
X4363760Y-16056463D01*
X4363760Y-16056463D02*
X4354236Y-16037415D01*
X4354236Y-16037415D02*
X4354236Y-15865986D01*
X4487569Y-16065986D02*
X4468522Y-16056463D01*
X4468522Y-16056463D02*
X4458998Y-16037415D01*
X4458998Y-16037415D02*
X4458998Y-15865986D01*
X4716141Y-16065986D02*
X4716141Y-15865986D01*
X4716141Y-15865986D02*
X4782808Y-16008843D01*
X4782808Y-16008843D02*
X4849474Y-15865986D01*
X4849474Y-15865986D02*
X4849474Y-16065986D01*
X5030427Y-16065986D02*
X5030427Y-15961224D01*
X5030427Y-15961224D02*
X5020903Y-15942177D01*
X5020903Y-15942177D02*
X5001855Y-15932653D01*
X5001855Y-15932653D02*
X4963760Y-15932653D01*
X4963760Y-15932653D02*
X4944712Y-15942177D01*
X5030427Y-16056463D02*
X5011379Y-16065986D01*
X5011379Y-16065986D02*
X4963760Y-16065986D01*
X4963760Y-16065986D02*
X4944712Y-16056463D01*
X4944712Y-16056463D02*
X4935188Y-16037415D01*
X4935188Y-16037415D02*
X4935188Y-16018367D01*
X4935188Y-16018367D02*
X4944712Y-15999320D01*
X4944712Y-15999320D02*
X4963760Y-15989796D01*
X4963760Y-15989796D02*
X5011379Y-15989796D01*
X5011379Y-15989796D02*
X5030427Y-15980272D01*
X5125665Y-15932653D02*
X5125665Y-16132653D01*
X5125665Y-15942177D02*
X5144712Y-15932653D01*
X5144712Y-15932653D02*
X5182808Y-15932653D01*
X5182808Y-15932653D02*
X5201855Y-15942177D01*
X5201855Y-15942177D02*
X5211379Y-15951701D01*
X5211379Y-15951701D02*
X5220903Y-15970748D01*
X5220903Y-15970748D02*
X5220903Y-16027891D01*
X5220903Y-16027891D02*
X5211379Y-16046939D01*
X5211379Y-16046939D02*
X5201855Y-16056463D01*
X5201855Y-16056463D02*
X5182808Y-16065986D01*
X5182808Y-16065986D02*
X5144712Y-16065986D01*
X5144712Y-16065986D02*
X5125665Y-16056463D01*
X5306617Y-16046939D02*
X5316141Y-16056463D01*
X5316141Y-16056463D02*
X5306617Y-16065986D01*
X5306617Y-16065986D02*
X5297093Y-16056463D01*
X5297093Y-16056463D02*
X5306617Y-16046939D01*
X5306617Y-16046939D02*
X5306617Y-16065986D01*
X5306617Y-15942177D02*
X5316141Y-15951701D01*
X5316141Y-15951701D02*
X5306617Y-15961224D01*
X5306617Y-15961224D02*
X5297093Y-15951701D01*
X5297093Y-15951701D02*
X5306617Y-15942177D01*
X5306617Y-15942177D02*
X5306617Y-15961224D01*
M02*
