G04 #@! TF.GenerationSoftware,KiCad,Pcbnew,(7.99.0-363-gaf7eb36925)*
G04 #@! TF.CreationDate,2023-03-17T22:26:03-06:00*
G04 #@! TF.ProjectId,FennecVTI,46656e6e-6563-4565-9449-2e6b69636164,rev?*
G04 #@! TF.SameCoordinates,Original*
G04 #@! TF.FileFunction,Soldermask,Bot*
G04 #@! TF.FilePolarity,Negative*
%FSLAX46Y46*%
G04 Gerber Fmt 4.6, Leading zero omitted, Abs format (unit mm)*
G04 Created by KiCad (PCBNEW (7.99.0-363-gaf7eb36925)) date 2023-03-17 22:26:03*
%MOMM*%
%LPD*%
G01*
G04 APERTURE LIST*
G04 Aperture macros list*
%AMOutline5P*
0 Free polygon, 5 corners , with rotation*
0 The origin of the aperture is its center*
0 number of corners: always 5*
0 $1 to $10 corner X, Y*
0 $11 Rotation angle, in degrees counterclockwise*
0 create outline with 5 corners*
4,1,5,$1,$2,$3,$4,$5,$6,$7,$8,$9,$10,$1,$2,$11*%
%AMOutline6P*
0 Free polygon, 6 corners , with rotation*
0 The origin of the aperture is its center*
0 number of corners: always 6*
0 $1 to $12 corner X, Y*
0 $13 Rotation angle, in degrees counterclockwise*
0 create outline with 6 corners*
4,1,6,$1,$2,$3,$4,$5,$6,$7,$8,$9,$10,$11,$12,$1,$2,$13*%
%AMOutline7P*
0 Free polygon, 7 corners , with rotation*
0 The origin of the aperture is its center*
0 number of corners: always 7*
0 $1 to $14 corner X, Y*
0 $15 Rotation angle, in degrees counterclockwise*
0 create outline with 7 corners*
4,1,7,$1,$2,$3,$4,$5,$6,$7,$8,$9,$10,$11,$12,$13,$14,$1,$2,$15*%
%AMOutline8P*
0 Free polygon, 8 corners , with rotation*
0 The origin of the aperture is its center*
0 number of corners: always 8*
0 $1 to $16 corner X, Y*
0 $17 Rotation angle, in degrees counterclockwise*
0 create outline with 8 corners*
4,1,8,$1,$2,$3,$4,$5,$6,$7,$8,$9,$10,$11,$12,$13,$14,$15,$16,$1,$2,$17*%
G04 Aperture macros list end*
%ADD10Outline5P,-0.650000X0.650000X0.325000X0.650000X0.650000X0.325000X0.650000X-0.650000X-0.650000X-0.650000X0.000000*%
%ADD11C,1.300000*%
%ADD12O,1.600000X2.400000*%
%ADD13R,1.600000X2.400000*%
%ADD14R,1.700000X1.700000*%
%ADD15O,1.700000X1.700000*%
%ADD16R,1.778000X1.778000*%
%ADD17C,1.778000*%
%ADD18C,4.000000*%
%ADD19R,1.600000X1.600000*%
%ADD20C,1.600000*%
%ADD21R,1.270000X2.540000*%
%ADD22O,1.270000X2.540000*%
%ADD23R,1.270000X2.500000*%
%ADD24O,1.270000X2.500000*%
%ADD25O,1.600000X1.600000*%
%ADD26R,2.500000X1.270000*%
%ADD27O,2.500000X1.270000*%
%ADD28R,1.800000X1.800000*%
%ADD29C,1.800000*%
%ADD30O,3.556000X2.032000*%
%ADD31O,2.286000X3.556000*%
G04 APERTURE END LIST*
D10*
X187706000Y-134091000D03*
D11*
X188976000Y-132821000D03*
X190246000Y-134091000D03*
D12*
X73406000Y-97282000D03*
X75946000Y-97282000D03*
X78486000Y-97282000D03*
X81026000Y-97282000D03*
X83566000Y-97282000D03*
X86106000Y-97282000D03*
X88646000Y-97282000D03*
X91186000Y-97282000D03*
X93726000Y-97282000D03*
X96266000Y-97282000D03*
X98806000Y-97282000D03*
X101346000Y-97282000D03*
X103886000Y-97282000D03*
X106426000Y-97282000D03*
X106426000Y-112522000D03*
X103886000Y-112522000D03*
X101346000Y-112522000D03*
X98806000Y-112522000D03*
X96266000Y-112522000D03*
X93726000Y-112522000D03*
X91186000Y-112522000D03*
X88646000Y-112522000D03*
X86106000Y-112522000D03*
X83566000Y-112522000D03*
X81026000Y-112522000D03*
D13*
X78486000Y-112522000D03*
D12*
X75946000Y-112522000D03*
D13*
X73406000Y-112522000D03*
X78486000Y-112527000D03*
D12*
X81026000Y-112527000D03*
X83566000Y-112527000D03*
X86106000Y-112527000D03*
X88646000Y-112527000D03*
X91186000Y-112527000D03*
X93726000Y-112527000D03*
X96266000Y-112527000D03*
X98806000Y-112527000D03*
X101346000Y-112527000D03*
X103886000Y-112527000D03*
X106426000Y-112527000D03*
X106426000Y-97287000D03*
X103886000Y-97287000D03*
X101346000Y-97287000D03*
X98806000Y-97287000D03*
X96266000Y-97287000D03*
X93726000Y-97287000D03*
X91186000Y-97287000D03*
X88646000Y-97287000D03*
X86106000Y-97287000D03*
X83566000Y-97287000D03*
X81026000Y-97287000D03*
X78486000Y-97287000D03*
D14*
X72771000Y-147828000D03*
D15*
X75311000Y-147828000D03*
X77851000Y-147828000D03*
X80391000Y-147828000D03*
X82931000Y-147828000D03*
X85471000Y-147828000D03*
X88011000Y-147828000D03*
X90551000Y-147828000D03*
X93091000Y-147828000D03*
X95631000Y-147828000D03*
X98171000Y-147828000D03*
X100711000Y-147828000D03*
X103251000Y-147828000D03*
X105791000Y-147828000D03*
D16*
X247650000Y-50292000D03*
D17*
X247650000Y-52832000D03*
X247650000Y-55372000D03*
X247650000Y-57912000D03*
X247650000Y-60452000D03*
X250190000Y-50292000D03*
X250190000Y-52832000D03*
X250190000Y-55372000D03*
X250190000Y-57912000D03*
X250190000Y-60452000D03*
X229870000Y-29972000D03*
X229870000Y-32512000D03*
X229870000Y-35052000D03*
X232410000Y-29972000D03*
X232410000Y-32512000D03*
X232410000Y-35052000D03*
D18*
X46650331Y-72600000D03*
X46650331Y-97600000D03*
D19*
X48070331Y-90640000D03*
D20*
X48070331Y-87870000D03*
X48070331Y-85100000D03*
X48070331Y-82330000D03*
X48070331Y-79560000D03*
X45230331Y-89255000D03*
X45230331Y-86485000D03*
X45230331Y-83715000D03*
X45230331Y-80945000D03*
D16*
X234950000Y-113792000D03*
D17*
X234950000Y-116332000D03*
X234950000Y-118872000D03*
X234950000Y-121412000D03*
X234950000Y-123952000D03*
X237490000Y-113792000D03*
X237490000Y-116332000D03*
X237490000Y-118872000D03*
X237490000Y-121412000D03*
X237490000Y-123952000D03*
X240030000Y-113792000D03*
X240030000Y-116332000D03*
X240030000Y-118872000D03*
X240030000Y-121412000D03*
X240030000Y-123952000D03*
X242570000Y-113792000D03*
X242570000Y-116332000D03*
X242570000Y-118872000D03*
X242570000Y-121412000D03*
X242570000Y-123952000D03*
X245110000Y-113792000D03*
X245110000Y-116332000D03*
X245110000Y-118872000D03*
X245110000Y-121412000D03*
X245110000Y-123952000D03*
D16*
X247650000Y-101092000D03*
D17*
X247650000Y-103632000D03*
X247650000Y-106172000D03*
X247650000Y-108712000D03*
X247650000Y-111252000D03*
X250190000Y-101092000D03*
X250190000Y-103632000D03*
X250190000Y-106172000D03*
X250190000Y-108712000D03*
X250190000Y-111252000D03*
X212090000Y-116332000D03*
X212090000Y-118872000D03*
X212090000Y-121412000D03*
X212090000Y-123952000D03*
X214630000Y-113792000D03*
X214630000Y-116332000D03*
X214630000Y-118872000D03*
X214630000Y-121412000D03*
X214630000Y-123952000D03*
X217170000Y-113792000D03*
X217170000Y-116332000D03*
X217170000Y-118872000D03*
X217170000Y-121412000D03*
X217170000Y-123952000D03*
X219710000Y-113792000D03*
X219710000Y-116332000D03*
X219710000Y-118872000D03*
X219710000Y-121412000D03*
X219710000Y-123952000D03*
D20*
X186690000Y-83606000D03*
X186690000Y-86106000D03*
D17*
X229870000Y-37592000D03*
X229870000Y-40132000D03*
X229870000Y-42672000D03*
X229870000Y-45212000D03*
X229870000Y-47752000D03*
X232410000Y-37592000D03*
X232410000Y-40132000D03*
X232410000Y-42672000D03*
X232410000Y-45212000D03*
X232410000Y-47752000D03*
D16*
X222250000Y-62992000D03*
D17*
X222250000Y-65532000D03*
X222250000Y-68072000D03*
X222250000Y-70612000D03*
X222250000Y-73152000D03*
X224790000Y-62992000D03*
X224790000Y-65532000D03*
X224790000Y-68072000D03*
X224790000Y-70612000D03*
X224790000Y-73152000D03*
X227330000Y-62992000D03*
X227330000Y-65532000D03*
X227330000Y-68072000D03*
X227330000Y-70612000D03*
X227330000Y-73152000D03*
X229870000Y-62992000D03*
X229870000Y-65532000D03*
X229870000Y-68072000D03*
X229870000Y-70612000D03*
X229870000Y-73152000D03*
X232410000Y-62992000D03*
X232410000Y-65532000D03*
X232410000Y-68072000D03*
X232410000Y-70612000D03*
X232410000Y-73152000D03*
D21*
X83820000Y-66498000D03*
D22*
X86360000Y-66498000D03*
X88900000Y-66498000D03*
X91440000Y-66498000D03*
X93980000Y-66498000D03*
X96520000Y-66498000D03*
X99060000Y-66498000D03*
X101600000Y-66498000D03*
X104140000Y-66498000D03*
X106680000Y-66498000D03*
X106680000Y-58978000D03*
X104140000Y-58978000D03*
X101600000Y-58978000D03*
X99060000Y-58978000D03*
X96520000Y-58978000D03*
X93980000Y-58978000D03*
X91440000Y-58978000D03*
X88900000Y-58978000D03*
X86360000Y-58978000D03*
X83820000Y-58978000D03*
D23*
X193802000Y-59640000D03*
D24*
X201422000Y-59640000D03*
X209042000Y-59640000D03*
X201422000Y-52120000D03*
X209042000Y-52120000D03*
X193802000Y-52120000D03*
D16*
X234950000Y-88392000D03*
D17*
X234950000Y-90932000D03*
X234950000Y-93472000D03*
X234950000Y-96012000D03*
X234950000Y-98552000D03*
X237490000Y-88392000D03*
X237490000Y-90932000D03*
X237490000Y-93472000D03*
X237490000Y-96012000D03*
X237490000Y-98552000D03*
X240030000Y-88392000D03*
X240030000Y-90932000D03*
X240030000Y-93472000D03*
X240030000Y-96012000D03*
X240030000Y-98552000D03*
X242570000Y-88392000D03*
X242570000Y-90932000D03*
X242570000Y-93472000D03*
X242570000Y-96012000D03*
X242570000Y-98552000D03*
X245110000Y-88392000D03*
X245110000Y-90932000D03*
X245110000Y-93472000D03*
X245110000Y-96012000D03*
X245110000Y-98552000D03*
D21*
X83820000Y-84836000D03*
D22*
X86360000Y-84836000D03*
X88900000Y-84836000D03*
X91440000Y-84836000D03*
X93980000Y-84836000D03*
X96520000Y-84836000D03*
X99060000Y-84836000D03*
X101600000Y-84836000D03*
X104140000Y-84836000D03*
X106680000Y-84836000D03*
X106680000Y-77316000D03*
X104140000Y-77316000D03*
X101600000Y-77316000D03*
X99060000Y-77316000D03*
X96520000Y-77316000D03*
X93980000Y-77316000D03*
X91440000Y-77316000D03*
X88900000Y-77316000D03*
X86360000Y-77316000D03*
X83820000Y-77316000D03*
D23*
X201676000Y-100350000D03*
D24*
X199136000Y-100350000D03*
X196596000Y-100350000D03*
X194056000Y-100350000D03*
X191516000Y-100350000D03*
X188976000Y-100350000D03*
X186436000Y-100350000D03*
X183896000Y-100350000D03*
X181356000Y-100350000D03*
X178816000Y-100350000D03*
X176276000Y-100350000D03*
X173736000Y-100350000D03*
X171196000Y-100350000D03*
X168656000Y-100350000D03*
X166116000Y-100350000D03*
X163576000Y-100350000D03*
X161036000Y-100350000D03*
X158496000Y-100350000D03*
X155956000Y-100350000D03*
X153416000Y-100350000D03*
X153416000Y-115550000D03*
X155956000Y-115550000D03*
X158496000Y-115550000D03*
X161036000Y-115550000D03*
X163576000Y-115550000D03*
X166116000Y-115550000D03*
X168656000Y-115550000D03*
X171196000Y-115550000D03*
X173736000Y-115550000D03*
X176276000Y-115550000D03*
X178816000Y-115550000D03*
X181356000Y-115550000D03*
X183896000Y-115550000D03*
X186436000Y-115550000D03*
X188976000Y-115550000D03*
X191516000Y-115550000D03*
X194056000Y-115550000D03*
X196596000Y-115550000D03*
X199136000Y-115550000D03*
X201676000Y-115550000D03*
D20*
X187706000Y-141986000D03*
D25*
X197866000Y-141986000D03*
D20*
X51816000Y-41910000D03*
D25*
X41656000Y-41910000D03*
D16*
X222250000Y-88392000D03*
D17*
X222250000Y-90932000D03*
X222250000Y-93472000D03*
X222250000Y-96012000D03*
X222250000Y-98552000D03*
X224790000Y-88392000D03*
X224790000Y-90932000D03*
X224790000Y-93472000D03*
X224790000Y-96012000D03*
X224790000Y-98552000D03*
X227330000Y-88392000D03*
X227330000Y-90932000D03*
X227330000Y-93472000D03*
X227330000Y-96012000D03*
X227330000Y-98552000D03*
X229870000Y-88392000D03*
X229870000Y-90932000D03*
X229870000Y-93472000D03*
X229870000Y-96012000D03*
X229870000Y-98552000D03*
X232410000Y-88392000D03*
X232410000Y-90932000D03*
X232410000Y-93472000D03*
X232410000Y-96012000D03*
X232410000Y-98552000D03*
D20*
X96266000Y-33020000D03*
D25*
X86106000Y-33020000D03*
D19*
X204978000Y-128903349D03*
D20*
X204978000Y-132403349D03*
D13*
X88895000Y-52578000D03*
D12*
X91435000Y-52578000D03*
X93975000Y-52578000D03*
X96515000Y-52578000D03*
X99055000Y-52578000D03*
X101595000Y-52578000D03*
X104135000Y-52578000D03*
X106675000Y-52578000D03*
X109215000Y-52578000D03*
X111755000Y-52578000D03*
X114295000Y-52578000D03*
X116835000Y-52578000D03*
X116835000Y-37338000D03*
X114295000Y-37338000D03*
X111755000Y-37338000D03*
X109215000Y-37338000D03*
X106675000Y-37338000D03*
X104135000Y-37338000D03*
X101595000Y-37338000D03*
X99055000Y-37338000D03*
X96515000Y-37338000D03*
X93975000Y-37338000D03*
X91435000Y-37338000D03*
X88895000Y-37338000D03*
D20*
X79990000Y-60706000D03*
X77490000Y-60706000D03*
X54336000Y-37084000D03*
X51836000Y-37084000D03*
D16*
X234950000Y-101092000D03*
D17*
X234950000Y-103632000D03*
X234950000Y-106172000D03*
X234950000Y-108712000D03*
X234950000Y-111252000D03*
X237490000Y-101092000D03*
X237490000Y-103632000D03*
X237490000Y-106172000D03*
X237490000Y-108712000D03*
X237490000Y-111252000D03*
X240030000Y-101092000D03*
X240030000Y-103632000D03*
X240030000Y-106172000D03*
X240030000Y-108712000D03*
X240030000Y-111252000D03*
X242570000Y-101092000D03*
X242570000Y-103632000D03*
X242570000Y-106172000D03*
X242570000Y-108712000D03*
X242570000Y-111252000D03*
X245110000Y-101092000D03*
X245110000Y-103632000D03*
X245110000Y-106172000D03*
X245110000Y-108712000D03*
X245110000Y-111252000D03*
D14*
X71740000Y-83693000D03*
D15*
X69200000Y-83693000D03*
X66660000Y-83693000D03*
D26*
X134670000Y-100330000D03*
D27*
X134670000Y-102870000D03*
X134670000Y-105410000D03*
X134670000Y-107950000D03*
X134670000Y-110490000D03*
X134670000Y-113030000D03*
X134670000Y-115570000D03*
X142190000Y-115570000D03*
X142190000Y-113030000D03*
X142190000Y-110490000D03*
X142190000Y-107950000D03*
X142190000Y-105410000D03*
X142190000Y-102870000D03*
X142190000Y-100330000D03*
D16*
X247650000Y-62992000D03*
D17*
X247650000Y-65532000D03*
X247650000Y-68072000D03*
X247650000Y-70612000D03*
X247650000Y-73152000D03*
X250190000Y-62992000D03*
X250190000Y-65532000D03*
X250190000Y-68072000D03*
X250190000Y-70612000D03*
X250190000Y-73152000D03*
D21*
X190881000Y-88546000D03*
D22*
X193421000Y-88546000D03*
X195961000Y-88546000D03*
X198501000Y-88546000D03*
X201041000Y-88546000D03*
X203581000Y-88546000D03*
X206121000Y-88546000D03*
X208661000Y-88546000D03*
X208661000Y-81026000D03*
X206121000Y-81026000D03*
X203581000Y-81026000D03*
X201041000Y-81026000D03*
X198501000Y-81026000D03*
X195961000Y-81026000D03*
X193421000Y-81026000D03*
X190881000Y-81026000D03*
D16*
X247650000Y-75692000D03*
D17*
X247650000Y-78232000D03*
X247650000Y-80772000D03*
X247650000Y-83312000D03*
X247650000Y-85852000D03*
X250190000Y-75692000D03*
X250190000Y-78232000D03*
X250190000Y-80772000D03*
X250190000Y-83312000D03*
X250190000Y-85852000D03*
D14*
X166370000Y-137414000D03*
D15*
X166370000Y-134874000D03*
X168910000Y-137414000D03*
X168910000Y-134874000D03*
X171450000Y-137414000D03*
X171450000Y-134874000D03*
X173990000Y-137414000D03*
X173990000Y-134874000D03*
X176530000Y-137414000D03*
X176530000Y-134874000D03*
X179070000Y-137414000D03*
X179070000Y-134874000D03*
D28*
X197871000Y-133096000D03*
D29*
X195331000Y-133096000D03*
D20*
X110490000Y-148356000D03*
X110490000Y-150856000D03*
D18*
X46840000Y-113355000D03*
X46840000Y-146655000D03*
D19*
X48260000Y-139700000D03*
D20*
X48260000Y-136930000D03*
X48260000Y-134160000D03*
X48260000Y-131390000D03*
X48260000Y-128620000D03*
X48260000Y-125850000D03*
X48260000Y-123080000D03*
X48260000Y-120310000D03*
X45420000Y-138315000D03*
X45420000Y-135545000D03*
X45420000Y-132775000D03*
X45420000Y-130005000D03*
X45420000Y-127235000D03*
X45420000Y-124465000D03*
X45420000Y-121695000D03*
X79970000Y-77470000D03*
X77470000Y-77470000D03*
D23*
X57658000Y-45974000D03*
D24*
X60198000Y-45974000D03*
X62738000Y-45974000D03*
X65278000Y-45974000D03*
X67818000Y-45974000D03*
X70358000Y-45974000D03*
X72898000Y-45974000D03*
X72898000Y-38454000D03*
X70358000Y-38454000D03*
X67818000Y-38454000D03*
X65278000Y-38454000D03*
X62738000Y-38454000D03*
X60198000Y-38454000D03*
X57658000Y-38454000D03*
D17*
X217170000Y-111252000D03*
X219710000Y-108712000D03*
X219710000Y-111252000D03*
D16*
X234950000Y-126492000D03*
D17*
X234950000Y-129032000D03*
X234950000Y-131572000D03*
X237490000Y-126492000D03*
X237490000Y-129032000D03*
X237490000Y-131572000D03*
X240030000Y-126492000D03*
X240030000Y-129032000D03*
X240030000Y-131572000D03*
X242570000Y-126492000D03*
X242570000Y-129032000D03*
X242570000Y-131572000D03*
X245110000Y-126492000D03*
X245110000Y-129032000D03*
X245110000Y-131572000D03*
D20*
X204724000Y-41914000D03*
X204724000Y-44414000D03*
X134366000Y-83566000D03*
X134366000Y-86066000D03*
D23*
X57658000Y-140462000D03*
D24*
X60198000Y-140462000D03*
X62738000Y-140462000D03*
X65278000Y-140462000D03*
X67818000Y-140462000D03*
X70358000Y-140462000D03*
X72898000Y-140462000D03*
X75438000Y-140462000D03*
X77978000Y-140462000D03*
X80518000Y-140462000D03*
X83058000Y-140462000D03*
X85598000Y-140462000D03*
X88138000Y-140462000D03*
X90678000Y-140462000D03*
X93218000Y-140462000D03*
X95758000Y-140462000D03*
X98298000Y-140462000D03*
X100838000Y-140462000D03*
X103378000Y-140462000D03*
X105918000Y-140462000D03*
X105918000Y-125262000D03*
X103378000Y-125262000D03*
X100838000Y-125262000D03*
X98298000Y-125262000D03*
X95758000Y-125262000D03*
X93218000Y-125262000D03*
X90678000Y-125262000D03*
X88138000Y-125262000D03*
X85598000Y-125262000D03*
X83058000Y-125262000D03*
X80518000Y-125262000D03*
X77978000Y-125262000D03*
X75438000Y-125262000D03*
X72898000Y-125262000D03*
X70358000Y-125262000D03*
X67818000Y-125262000D03*
X65278000Y-125262000D03*
X62738000Y-125262000D03*
X60198000Y-125262000D03*
X57658000Y-125262000D03*
D19*
X187706000Y-138811000D03*
D25*
X197866000Y-138811000D03*
D14*
X56129000Y-147828000D03*
D15*
X58669000Y-147828000D03*
D14*
X99568000Y-33020000D03*
D15*
X102108000Y-33020000D03*
D20*
X160401000Y-83566000D03*
X160401000Y-86066000D03*
D21*
X138811000Y-88596000D03*
D22*
X141351000Y-88596000D03*
X143891000Y-88596000D03*
X146431000Y-88596000D03*
X148971000Y-88596000D03*
X151511000Y-88596000D03*
X154051000Y-88596000D03*
X156591000Y-88596000D03*
X156591000Y-81076000D03*
X154051000Y-81076000D03*
X151511000Y-81076000D03*
X148971000Y-81076000D03*
X146431000Y-81076000D03*
X143891000Y-81076000D03*
X141351000Y-81076000D03*
X138811000Y-81076000D03*
D20*
X145796000Y-100310000D03*
X145796000Y-97810000D03*
D14*
X66548000Y-147828000D03*
D15*
X64008000Y-147828000D03*
D20*
X187706000Y-145161000D03*
D25*
X197866000Y-145161000D03*
D13*
X138811000Y-64262000D03*
D12*
X141351000Y-64262000D03*
X143891000Y-64262000D03*
X146431000Y-64262000D03*
X148971000Y-64262000D03*
X151511000Y-64262000D03*
X154051000Y-64262000D03*
X156591000Y-64262000D03*
X159131000Y-64262000D03*
X161671000Y-64262000D03*
X164211000Y-64262000D03*
X166751000Y-64262000D03*
X166751000Y-49022000D03*
X164211000Y-49022000D03*
X161671000Y-49022000D03*
X159131000Y-49022000D03*
X156591000Y-49022000D03*
X154051000Y-49022000D03*
X151511000Y-49022000D03*
X148971000Y-49022000D03*
X146431000Y-49022000D03*
X143891000Y-49022000D03*
X141351000Y-49022000D03*
X138811000Y-49022000D03*
D16*
X222250000Y-126492000D03*
D17*
X222250000Y-129032000D03*
X222250000Y-131572000D03*
X224790000Y-126492000D03*
X224790000Y-129032000D03*
X224790000Y-131572000D03*
X227330000Y-126492000D03*
X227330000Y-129032000D03*
X227330000Y-131572000D03*
X229870000Y-126492000D03*
X229870000Y-129032000D03*
X229870000Y-131572000D03*
X232410000Y-126492000D03*
X232410000Y-129032000D03*
X232410000Y-131572000D03*
D21*
X164846000Y-88596000D03*
D22*
X167386000Y-88596000D03*
X169926000Y-88596000D03*
X172466000Y-88596000D03*
X175006000Y-88596000D03*
X177546000Y-88596000D03*
X180086000Y-88596000D03*
X182626000Y-88596000D03*
X182626000Y-81076000D03*
X180086000Y-81076000D03*
X177546000Y-81076000D03*
X175006000Y-81076000D03*
X172466000Y-81076000D03*
X169926000Y-81076000D03*
X167386000Y-81076000D03*
X164846000Y-81076000D03*
D20*
X80010000Y-92710000D03*
X77510000Y-92710000D03*
D16*
X234950000Y-75692000D03*
D17*
X234950000Y-78232000D03*
X234950000Y-80772000D03*
X234950000Y-83312000D03*
X234950000Y-85852000D03*
X237490000Y-75692000D03*
X237490000Y-78232000D03*
X237490000Y-80772000D03*
X237490000Y-83312000D03*
X237490000Y-85852000D03*
X240030000Y-75692000D03*
X240030000Y-78232000D03*
X240030000Y-80772000D03*
X240030000Y-83312000D03*
X240030000Y-85852000D03*
X242570000Y-75692000D03*
X242570000Y-78232000D03*
X242570000Y-80772000D03*
X242570000Y-83312000D03*
X242570000Y-85852000D03*
X245110000Y-75692000D03*
X245110000Y-78232000D03*
X245110000Y-80772000D03*
X245110000Y-83312000D03*
X245110000Y-85852000D03*
D20*
X189230000Y-54630000D03*
X189230000Y-57130000D03*
D16*
X234950000Y-50292000D03*
D17*
X234950000Y-52832000D03*
X234950000Y-55372000D03*
X234950000Y-57912000D03*
X234950000Y-60452000D03*
X237490000Y-50292000D03*
X237490000Y-52832000D03*
X237490000Y-55372000D03*
X237490000Y-57912000D03*
X237490000Y-60452000D03*
X240030000Y-50292000D03*
X240030000Y-52832000D03*
X240030000Y-55372000D03*
X240030000Y-57912000D03*
X240030000Y-60452000D03*
X242570000Y-50292000D03*
X242570000Y-52832000D03*
X242570000Y-55372000D03*
X242570000Y-57912000D03*
X242570000Y-60452000D03*
X245110000Y-50292000D03*
X245110000Y-52832000D03*
X245110000Y-55372000D03*
X245110000Y-57912000D03*
X245110000Y-60452000D03*
X212090000Y-126492000D03*
X212090000Y-129032000D03*
X212090000Y-131572000D03*
X214630000Y-126492000D03*
X214630000Y-129032000D03*
X214630000Y-131572000D03*
X217170000Y-126492000D03*
X217170000Y-129032000D03*
X217170000Y-131572000D03*
X219710000Y-126492000D03*
X219710000Y-129032000D03*
X219710000Y-131572000D03*
D13*
X83805000Y-52578000D03*
D12*
X86345000Y-52578000D03*
X88885000Y-52578000D03*
X91425000Y-52578000D03*
X93965000Y-52578000D03*
X96505000Y-52578000D03*
X99045000Y-52578000D03*
X101585000Y-52578000D03*
X104125000Y-52578000D03*
X106665000Y-52578000D03*
X109205000Y-52578000D03*
X111745000Y-52578000D03*
X114285000Y-52578000D03*
X116825000Y-52578000D03*
X116825000Y-37338000D03*
X114285000Y-37338000D03*
X111745000Y-37338000D03*
X109205000Y-37338000D03*
X106665000Y-37338000D03*
X104125000Y-37338000D03*
X101585000Y-37338000D03*
X99045000Y-37338000D03*
X96505000Y-37338000D03*
X93965000Y-37338000D03*
X91425000Y-37338000D03*
X88885000Y-37338000D03*
X86345000Y-37338000D03*
X83805000Y-37338000D03*
D20*
X51796000Y-66802000D03*
X49296000Y-66802000D03*
D14*
X134620000Y-147833004D03*
D15*
X134620000Y-145293004D03*
X137160000Y-147833004D03*
X137160000Y-145293004D03*
X139700000Y-147833004D03*
X139700000Y-145293004D03*
X142240000Y-147833004D03*
X142240000Y-145293004D03*
X144780000Y-147833004D03*
X144780000Y-145293004D03*
X147320000Y-147833004D03*
X147320000Y-145293004D03*
X149860000Y-147833004D03*
X149860000Y-145293004D03*
X152400000Y-147833004D03*
X152400000Y-145293004D03*
X154940000Y-147833004D03*
X154940000Y-145293004D03*
X157480000Y-147833004D03*
X157480000Y-145293004D03*
X160020000Y-147833004D03*
X160020000Y-145293004D03*
X162560000Y-147833004D03*
X162560000Y-145293004D03*
X165100000Y-147833004D03*
X165100000Y-145293004D03*
X167640000Y-147833004D03*
X167640000Y-145293004D03*
X170180000Y-147833004D03*
X170180000Y-145293004D03*
X172720000Y-147833004D03*
X172720000Y-145293004D03*
X175260000Y-147833004D03*
X175260000Y-145293004D03*
X177800000Y-147833004D03*
X177800000Y-145293004D03*
X180340000Y-147833004D03*
X180340000Y-145293004D03*
X182880000Y-147833004D03*
X182880000Y-145293004D03*
D21*
X55245000Y-78690000D03*
D22*
X57785000Y-78690000D03*
X60325000Y-78690000D03*
X62865000Y-78690000D03*
X65405000Y-78690000D03*
X67945000Y-78690000D03*
X70485000Y-78690000D03*
X73025000Y-78690000D03*
X73025000Y-71170000D03*
X70485000Y-71170000D03*
X67945000Y-71170000D03*
X65405000Y-71170000D03*
X62865000Y-71170000D03*
X60325000Y-71170000D03*
X57785000Y-71170000D03*
X55245000Y-71170000D03*
D20*
X51816000Y-46863000D03*
D25*
X41656000Y-46863000D03*
D16*
X234950000Y-62992000D03*
D17*
X234950000Y-65532000D03*
X234950000Y-68072000D03*
X234950000Y-70612000D03*
X234950000Y-73152000D03*
X237490000Y-62992000D03*
X237490000Y-65532000D03*
X237490000Y-68072000D03*
X237490000Y-70612000D03*
X237490000Y-73152000D03*
X240030000Y-62992000D03*
X240030000Y-65532000D03*
X240030000Y-68072000D03*
X240030000Y-70612000D03*
X240030000Y-73152000D03*
X242570000Y-62992000D03*
X242570000Y-65532000D03*
X242570000Y-68072000D03*
X242570000Y-70612000D03*
X242570000Y-73152000D03*
X245110000Y-62992000D03*
X245110000Y-65532000D03*
X245110000Y-68072000D03*
X245110000Y-70612000D03*
X245110000Y-73152000D03*
D27*
X66675000Y-99695000D03*
X66675000Y-102235000D03*
X66675000Y-104775000D03*
X66675000Y-107315000D03*
X66675000Y-109855000D03*
X66675000Y-112395000D03*
X66675000Y-114935000D03*
X59155000Y-114935000D03*
X59155000Y-112395000D03*
X59155000Y-109855000D03*
X59155000Y-107315000D03*
X59155000Y-104775000D03*
X59155000Y-102235000D03*
D26*
X59155000Y-99695000D03*
D16*
X247650000Y-37592000D03*
D17*
X247650000Y-40132000D03*
X247650000Y-42672000D03*
X247650000Y-45212000D03*
X247650000Y-47752000D03*
X250190000Y-37592000D03*
X250190000Y-40132000D03*
X250190000Y-42672000D03*
X250190000Y-45212000D03*
X250190000Y-47752000D03*
X222250000Y-106172000D03*
X222250000Y-108712000D03*
X222250000Y-111252000D03*
X224790000Y-103632000D03*
X224790000Y-106172000D03*
X224790000Y-108712000D03*
X224790000Y-111252000D03*
X227330000Y-101092000D03*
X227330000Y-103632000D03*
X227330000Y-106172000D03*
X227330000Y-108712000D03*
X227330000Y-111252000D03*
X229870000Y-101092000D03*
X229870000Y-103632000D03*
X229870000Y-106172000D03*
X229870000Y-108712000D03*
X229870000Y-111252000D03*
X232410000Y-101092000D03*
X232410000Y-103632000D03*
X232410000Y-106172000D03*
X232410000Y-108712000D03*
X232410000Y-111252000D03*
X234950000Y-29972000D03*
X234950000Y-32512000D03*
X234950000Y-35052000D03*
X237490000Y-29972000D03*
X237490000Y-32512000D03*
X237490000Y-35052000D03*
X240030000Y-29972000D03*
X240030000Y-32512000D03*
X240030000Y-35052000D03*
X242570000Y-29972000D03*
X242570000Y-32512000D03*
X242570000Y-35052000D03*
X245110000Y-29972000D03*
X245110000Y-32512000D03*
X245110000Y-35052000D03*
D16*
X247650000Y-113792000D03*
D17*
X247650000Y-116332000D03*
X247650000Y-118872000D03*
X247650000Y-121412000D03*
X247650000Y-123952000D03*
X250190000Y-113792000D03*
X250190000Y-116332000D03*
X250190000Y-118872000D03*
X250190000Y-121412000D03*
X250190000Y-123952000D03*
D16*
X247650000Y-126492000D03*
D17*
X247650000Y-129032000D03*
X247650000Y-131572000D03*
X250190000Y-126492000D03*
X250190000Y-129032000D03*
X250190000Y-131572000D03*
D30*
X45550000Y-52455000D03*
X45550000Y-59955000D03*
D31*
X41850000Y-56205000D03*
D20*
X134366000Y-49022000D03*
X131866000Y-49022000D03*
X179324000Y-41930000D03*
X179324000Y-44430000D03*
D16*
X247650000Y-88392000D03*
D17*
X247650000Y-90932000D03*
X247650000Y-93472000D03*
X247650000Y-96012000D03*
X247650000Y-98552000D03*
X250190000Y-88392000D03*
X250190000Y-90932000D03*
X250190000Y-93472000D03*
X250190000Y-96012000D03*
X250190000Y-98552000D03*
D21*
X183488500Y-46940000D03*
D22*
X186028500Y-46940000D03*
X188568500Y-46940000D03*
X191108500Y-46940000D03*
X193648500Y-46940000D03*
X196188500Y-46940000D03*
X198728500Y-46940000D03*
X201268500Y-46940000D03*
X201268500Y-39420000D03*
X198728500Y-39420000D03*
X196188500Y-39420000D03*
X193648500Y-39420000D03*
X191108500Y-39420000D03*
X188568500Y-39420000D03*
X186028500Y-39420000D03*
X183488500Y-39420000D03*
D16*
X222250000Y-113792000D03*
D17*
X222250000Y-116332000D03*
X222250000Y-118872000D03*
X222250000Y-121412000D03*
X222250000Y-123952000D03*
X224790000Y-113792000D03*
X224790000Y-116332000D03*
X224790000Y-118872000D03*
X224790000Y-121412000D03*
X224790000Y-123952000D03*
X227330000Y-113792000D03*
X227330000Y-116332000D03*
X227330000Y-118872000D03*
X227330000Y-121412000D03*
X227330000Y-123952000D03*
X229870000Y-113792000D03*
X229870000Y-116332000D03*
X229870000Y-118872000D03*
X229870000Y-121412000D03*
X229870000Y-123952000D03*
X232410000Y-113792000D03*
X232410000Y-116332000D03*
X232410000Y-118872000D03*
X232410000Y-121412000D03*
X232410000Y-123952000D03*
X247650000Y-29972000D03*
X247650000Y-32512000D03*
X247650000Y-35052000D03*
X250190000Y-29972000D03*
X250190000Y-32512000D03*
X250190000Y-35052000D03*
D16*
X222250000Y-75692000D03*
D17*
X222250000Y-78232000D03*
X222250000Y-80772000D03*
X222250000Y-83312000D03*
X224790000Y-75692000D03*
X224790000Y-78232000D03*
X224790000Y-80772000D03*
X224790000Y-83312000D03*
X224790000Y-85852000D03*
X227330000Y-75692000D03*
X227330000Y-78232000D03*
X227330000Y-80772000D03*
X227330000Y-83312000D03*
X227330000Y-85852000D03*
X229870000Y-75692000D03*
X229870000Y-78232000D03*
X229870000Y-80772000D03*
X229870000Y-83312000D03*
X229870000Y-85852000D03*
X232410000Y-75692000D03*
X232410000Y-78232000D03*
X232410000Y-80772000D03*
X232410000Y-83312000D03*
X232410000Y-85852000D03*
D21*
X55245000Y-63450000D03*
D22*
X57785000Y-63450000D03*
X60325000Y-63450000D03*
X62865000Y-63450000D03*
X65405000Y-63450000D03*
X67945000Y-63450000D03*
X70485000Y-63450000D03*
X73025000Y-63450000D03*
X73025000Y-55930000D03*
X70485000Y-55930000D03*
X67945000Y-55930000D03*
X65405000Y-55930000D03*
X62865000Y-55930000D03*
X60325000Y-55930000D03*
X57785000Y-55930000D03*
X55245000Y-55930000D03*
D20*
X79970000Y-37338000D03*
X77470000Y-37338000D03*
X150114000Y-100350000D03*
X150114000Y-97850000D03*
D17*
X222250000Y-60452000D03*
X224790000Y-60452000D03*
X227330000Y-50292000D03*
X227330000Y-52832000D03*
X227330000Y-55372000D03*
X227330000Y-57912000D03*
X227330000Y-60452000D03*
X229870000Y-50292000D03*
X229870000Y-52832000D03*
X229870000Y-55372000D03*
X229870000Y-57912000D03*
X229870000Y-60452000D03*
X232410000Y-50292000D03*
X232410000Y-52832000D03*
X232410000Y-55372000D03*
X232410000Y-57912000D03*
X232410000Y-60452000D03*
D20*
X55098000Y-52324000D03*
X52598000Y-52324000D03*
D23*
X208512500Y-46817000D03*
D24*
X211052500Y-46817000D03*
X213592500Y-46817000D03*
X216132500Y-46817000D03*
X218672500Y-46817000D03*
X221212500Y-46817000D03*
X223752500Y-46817000D03*
X223752500Y-39297000D03*
X221212500Y-39297000D03*
X218672500Y-39297000D03*
X216132500Y-39297000D03*
X213592500Y-39297000D03*
X211052500Y-39297000D03*
X208512500Y-39297000D03*
D19*
X54041113Y-32766000D03*
D20*
X52041113Y-32766000D03*
D16*
X234950000Y-37592000D03*
D17*
X234950000Y-40132000D03*
X234950000Y-42672000D03*
X234950000Y-45212000D03*
X234950000Y-47752000D03*
X237490000Y-37592000D03*
X237490000Y-40132000D03*
X237490000Y-42672000D03*
X237490000Y-45212000D03*
X237490000Y-47752000D03*
X240030000Y-37592000D03*
X240030000Y-40132000D03*
X240030000Y-42672000D03*
X240030000Y-45212000D03*
X240030000Y-47752000D03*
X242570000Y-37592000D03*
X242570000Y-40132000D03*
X242570000Y-42672000D03*
X242570000Y-45212000D03*
X242570000Y-47752000D03*
X245110000Y-37592000D03*
X245110000Y-40132000D03*
X245110000Y-42672000D03*
X245110000Y-45212000D03*
X245110000Y-47752000D03*
M02*
